<svg xmlns="http://www.w3.org/2000/svg" width="24" height="24" fill="none" viewBox="0 0 24 24" id="right-arrow">
  <path fill="#000" d="M8.70711 7.05028C8.31658 6.65975 7.68342 6.65975 7.29289 7.05028C6.90237 7.4408 6.90237 8.07397 7.29289 8.46449L10.8284 12L7.29289 15.5356C6.90237 15.9261 6.90237 16.5592 7.29289 16.9498C7.68342 17.3403 8.31658 17.3403 8.70711 16.9498L12.2426 13.4142C13.0237 12.6332 13.0237 11.3669 12.2426 10.5858L8.70711 7.05028Z"></path>
  <path fill="#000" d="M13.7071 7.05028C13.3166 6.65975 12.6834 6.65975 12.2929 7.05028C11.9024 7.4408 11.9024 8.07397 12.2929 8.46449L15.8284 12L12.2929 15.5356C11.9024 15.9261 11.9024 16.5592 12.2929 16.9498C12.6834 17.3403 13.3166 17.3403 13.7071 16.9498L17.2426 13.4142C18.0237 12.6332 18.0237 11.3669 17.2426 10.5858L13.7071 7.05028Z"></path>
</svg>
